<mxfile host="app.diagrams.net" modified="2022-09-21T14:29:45.362Z" agent="5.0 (Windows NT 10.0; Win64; x64) AppleWebKit/537.36 (KHTML, like Gecko) Chrome/99.0.4844.51 Safari/537.36" etag="L8x-MyJQXK34UuRFvyfJ" version="20.3.1" type="github" pages="2">
  <diagram id="Rg2rtboUO9fEnwSOw4VL" name="Chequex">
    <mxGraphModel dx="782" dy="379" grid="1" gridSize="10" guides="1" tooltips="1" connect="1" arrows="1" fold="1" page="1" pageScale="1" pageWidth="827" pageHeight="1169" math="0" shadow="0">
      <root>
        <mxCell id="0" />
        <mxCell id="1" parent="0" />
        <mxCell id="RD35YB5dEa8BH7fztj4M-1" value="Chequex Angular" style="rounded=1;whiteSpace=wrap;html=1;verticalAlign=top;" parent="1" vertex="1">
          <mxGeometry x="180" y="99" width="200" height="341" as="geometry" />
        </mxCell>
        <mxCell id="RD35YB5dEa8BH7fztj4M-4" value="" style="edgeStyle=orthogonalEdgeStyle;rounded=0;orthogonalLoop=1;jettySize=auto;html=1;" parent="1" source="RD35YB5dEa8BH7fztj4M-2" target="RD35YB5dEa8BH7fztj4M-3" edge="1">
          <mxGeometry relative="1" as="geometry" />
        </mxCell>
        <mxCell id="RD35YB5dEa8BH7fztj4M-2" value="chequex" style="rounded=1;whiteSpace=wrap;html=1;" parent="1" vertex="1">
          <mxGeometry x="290" y="250" width="70" height="40" as="geometry" />
        </mxCell>
        <mxCell id="RD35YB5dEa8BH7fztj4M-3" value="Chequex Angular" style="rounded=1;whiteSpace=wrap;html=1;verticalAlign=top;" parent="1" vertex="1">
          <mxGeometry x="430" y="100" width="190" height="340" as="geometry" />
        </mxCell>
        <mxCell id="RD35YB5dEa8BH7fztj4M-8" value="" style="edgeStyle=orthogonalEdgeStyle;rounded=0;orthogonalLoop=1;jettySize=auto;html=1;" parent="1" source="RD35YB5dEa8BH7fztj4M-6" target="RD35YB5dEa8BH7fztj4M-7" edge="1">
          <mxGeometry relative="1" as="geometry" />
        </mxCell>
        <mxCell id="RD35YB5dEa8BH7fztj4M-6" value="Persona natural&lt;br&gt;funcionalidad" style="rounded=1;whiteSpace=wrap;html=1;" parent="1" vertex="1">
          <mxGeometry x="475" y="239" width="100" height="60" as="geometry" />
        </mxCell>
        <mxCell id="RD35YB5dEa8BH7fztj4M-7" value="" style="rounded=1;whiteSpace=wrap;html=1;" parent="1" vertex="1">
          <mxGeometry x="660" y="99" width="190" height="341" as="geometry" />
        </mxCell>
        <mxCell id="RD35YB5dEa8BH7fztj4M-9" value="Paso 1" style="rounded=1;whiteSpace=wrap;html=1;" parent="1" vertex="1">
          <mxGeometry x="696" y="139" width="120" height="60" as="geometry" />
        </mxCell>
        <mxCell id="RD35YB5dEa8BH7fztj4M-10" value="Paso 2" style="rounded=1;whiteSpace=wrap;html=1;" parent="1" vertex="1">
          <mxGeometry x="696" y="219" width="120" height="60" as="geometry" />
        </mxCell>
        <mxCell id="RD35YB5dEa8BH7fztj4M-16" style="edgeStyle=orthogonalEdgeStyle;rounded=0;orthogonalLoop=1;jettySize=auto;html=1;exitX=1;exitY=0.5;exitDx=0;exitDy=0;entryX=0;entryY=0.5;entryDx=0;entryDy=0;" parent="1" source="RD35YB5dEa8BH7fztj4M-11" target="RD35YB5dEa8BH7fztj4M-12" edge="1">
          <mxGeometry relative="1" as="geometry" />
        </mxCell>
        <mxCell id="RD35YB5dEa8BH7fztj4M-11" value="Paso 3" style="rounded=1;whiteSpace=wrap;html=1;" parent="1" vertex="1">
          <mxGeometry x="696" y="299" width="120" height="60" as="geometry" />
        </mxCell>
        <mxCell id="RD35YB5dEa8BH7fztj4M-12" value="" style="rounded=1;whiteSpace=wrap;html=1;" parent="1" vertex="1">
          <mxGeometry x="920" y="100" width="180" height="340" as="geometry" />
        </mxCell>
        <mxCell id="RD35YB5dEa8BH7fztj4M-14" value="" style="shape=image;html=1;verticalAlign=top;verticalLabelPosition=bottom;labelBackgroundColor=#ffffff;imageAspect=0;aspect=fixed;image=https://cdn1.iconfinder.com/data/icons/100-basic-for-user-interface/32/68-qr_code-128.png" parent="1" vertex="1">
          <mxGeometry x="946" y="201" width="128" height="128" as="geometry" />
        </mxCell>
      </root>
    </mxGraphModel>
  </diagram>
  <diagram id="ZdsOvnOP__NepEJzzvMR" name="PÃ¡gina-2">
    <mxGraphModel dx="782" dy="379" grid="1" gridSize="10" guides="1" tooltips="1" connect="1" arrows="1" fold="1" page="1" pageScale="1" pageWidth="827" pageHeight="1169" math="0" shadow="0">
      <root>
        <mxCell id="0" />
        <mxCell id="1" parent="0" />
        <mxCell id="Jeftqt4C_FR-t-T2lNiE-1" value="" style="rounded=1;whiteSpace=wrap;html=1;" parent="1" vertex="1">
          <mxGeometry x="260" y="30" width="230" height="460" as="geometry" />
        </mxCell>
        <mxCell id="Jeftqt4C_FR-t-T2lNiE-2" value="" style="rounded=1;whiteSpace=wrap;html=1;" parent="1" vertex="1">
          <mxGeometry x="290" y="90" width="180" height="60" as="geometry" />
        </mxCell>
        <mxCell id="Jeftqt4C_FR-t-T2lNiE-3" value="1-2" style="rounded=1;whiteSpace=wrap;html=1;fillColor=#dae8fc;strokeColor=#6c8ebf;" parent="1" vertex="1">
          <mxGeometry x="300" y="90" width="30" height="60" as="geometry" />
        </mxCell>
        <mxCell id="Jeftqt4C_FR-t-T2lNiE-4" value="" style="rounded=1;whiteSpace=wrap;html=1;fillColor=#dae8fc;strokeColor=#6c8ebf;" parent="1" vertex="1">
          <mxGeometry x="340" y="90" width="30" height="60" as="geometry" />
        </mxCell>
        <mxCell id="Jeftqt4C_FR-t-T2lNiE-11" value="" style="rounded=1;whiteSpace=wrap;html=1;fillColor=#dae8fc;strokeColor=#6c8ebf;" parent="1" vertex="1">
          <mxGeometry x="380" y="90" width="30" height="60" as="geometry" />
        </mxCell>
        <mxCell id="Jeftqt4C_FR-t-T2lNiE-12" value="" style="rounded=1;whiteSpace=wrap;html=1;fillColor=#dae8fc;strokeColor=#6c8ebf;" parent="1" vertex="1">
          <mxGeometry x="420" y="90" width="30" height="60" as="geometry" />
        </mxCell>
        <mxCell id="Jeftqt4C_FR-t-T2lNiE-13" value="" style="rounded=1;whiteSpace=wrap;html=1;" parent="1" vertex="1">
          <mxGeometry x="490" y="180" width="40" height="70" as="geometry" />
        </mxCell>
        <mxCell id="Jeftqt4C_FR-t-T2lNiE-16" value="Tarjeta" style="rounded=1;whiteSpace=wrap;html=1;" parent="1" vertex="1">
          <mxGeometry x="410" y="200" width="70" height="30" as="geometry" />
        </mxCell>
        <mxCell id="Jeftqt4C_FR-t-T2lNiE-17" value="" style="rounded=1;whiteSpace=wrap;html=1;" parent="1" vertex="1">
          <mxGeometry x="280" y="420" width="200" height="40" as="geometry" />
        </mxCell>
        <mxCell id="Jeftqt4C_FR-t-T2lNiE-19" value="" style="rounded=1;whiteSpace=wrap;html=1;" parent="1" vertex="1">
          <mxGeometry x="495" y="190" width="30" height="20" as="geometry" />
        </mxCell>
        <mxCell id="Jeftqt4C_FR-t-T2lNiE-20" value="" style="shape=image;html=1;verticalAlign=top;verticalLabelPosition=bottom;labelBackgroundColor=#ffffff;imageAspect=0;aspect=fixed;image=https://cdn1.iconfinder.com/data/icons/iconoir-vol-3/24/qr-code-128.png" parent="1" vertex="1">
          <mxGeometry x="501" y="191" width="18" height="18" as="geometry" />
        </mxCell>
        <mxCell id="Jeftqt4C_FR-t-T2lNiE-21" value="" style="rounded=1;whiteSpace=wrap;html=1;" parent="1" vertex="1">
          <mxGeometry x="490" y="220" width="40" height="30" as="geometry" />
        </mxCell>
        <mxCell id="Jeftqt4C_FR-t-T2lNiE-22" value="" style="shape=image;html=1;verticalAlign=top;verticalLabelPosition=bottom;labelBackgroundColor=#ffffff;imageAspect=0;aspect=fixed;image=https://cdn3.iconfinder.com/data/icons/webdesigncreative/free_icons_64x64_png/Key-board.png" parent="1" vertex="1">
          <mxGeometry x="495" y="220" width="30" height="30" as="geometry" />
        </mxCell>
        <mxCell id="Jeftqt4C_FR-t-T2lNiE-23" value="" style="rounded=1;whiteSpace=wrap;html=1;" parent="1" vertex="1">
          <mxGeometry x="660" y="80" width="120" height="60" as="geometry" />
        </mxCell>
      </root>
    </mxGraphModel>
  </diagram>
</mxfile>
